<svg
    xmlns="http://www.w3.org/2000/svg"
    fill="none"
    stroke="rgba(158, 58, 31, 0.5)"
    stroke-width="2"
    version="1.1"
    id="Capa_1"
    viewBox="238 -110.5 125 404" 
    xml:space="preserve"
  >
	<!-- whole = viewBox="238 -115 250 415"-->
	<!-- half = viewBox="238 -115 125 415"-->
    <g transform="rotate(-45)" >
    <path d="M346.69,190.237
            c25.654,34.603,30.052,79.757,4.374,105.423
                
            c-10.929,10.941-20.691,17.897-30.476,22.624
            c-4.586,2.676-12.886,8.925-17.708,20.679
            c-1.662,4.044-7.333,4.232-8.925,0.295
                
            c-0.295-0.707-0.495-1.179-0.589-1.285
            c-0.908-2.299-2.299-4.138-4.185-5.4
            c-9.962-6.661-29.981,5.176-44.718,26.421
                
            c-14.725,21.245-18.616,43.869-8.665,50.519
            c1.179,0.79,5.022,2.44,8.83,4.008
            c2.676,1.108,3.006,4.504,1.12,6.402
                
            c-0.377,0.365-0.837,0.684-1.379,0.908
            c-10.988,4.61-19.736,13.688-23.626,24.923
            c-6.461,18.651-15.704,34.909-26.668,45.874
                
            c-34.697,34.685-92.348,22.212-136.96-15.869

            c-58.949-65.479-71.434-123.142-36.749-157.827

            c10.964-10.964,27.222-20.219,45.897-26.668
            c5.942-2.063,11.283-5.482,15.68-9.88
            c3.914-3.914,7.05-8.571,9.22-13.747
                
            c1.391-3.301,6.001-3.466,7.321-0.259
            c1.556,3.796,3.23,7.663,4.008,8.83
            c6.661,9.95,29.285,6.06,50.507-8.677
                
            c21.257-14.737,33.082-34.756,26.432-44.695
            c-1.273-1.898-3.101-3.289-5.4-4.197
            c-0.094-0.094-0.578-0.295-1.285-0.589
                
            c-3.938-1.592-3.761-7.262,0.295-8.925
            c11.754-4.81,17.991-13.134,20.691-17.696
            c4.704-9.797,11.672-19.559,22.601-30.5
                
            c25.678-25.666,70.82-21.28,105.447,4.374
            L346.69,190.237z"
    />

</g>
  </svg>