<svg
    xmlns="http://www.w3.org/2000/svg"
    xmlns:xlink="http://www.w3.org/1999/xlink"
    fill="rgba(158, 58, 31, 0.8)"
    version="1.1"
    id="Capa_1"
    viewBox="0 0 442.257 442.257"
    xml:space="preserve"
  >
    <g>
      <path
        d="M439.826,8.864l-6.429-6.429C431.827,0.865,429.738,0,427.517,0c-1.647,0-3.243,0.484-4.614,1.399l-7.862,5.248
 l-1.908-1.908c-1.561-1.562-4.096-1.562-5.656,0c-1.563,1.563-1.563,4.095,0,5.657l0.779,0.779l-6.017,4.017
 c-2.08,1.388-3.413,3.611-3.658,6.099c-0.123,1.246,0.035,2.48,0.445,3.623l-3.28,3.067l-3.418-3.418
 c0.897-1.446,1.549-2.974,1.885-4.502c0.725-3.299-0.038-6.37-2.093-8.424c-1.522-1.522-3.658-2.361-6.014-2.361
 c-3.439,0-7.107,1.696-10.065,4.652c-5.148,5.15-6.154,12.212-2.289,16.079c1.523,1.523,3.659,2.361,6.015,2.361
 c2.294,0,4.687-0.769,6.906-2.149l3.227,3.227l-16,14.958l-2.707-2.707c0.897-1.445,1.548-2.973,1.884-4.5
 c0.725-3.299-0.038-6.37-2.092-8.423c-1.523-1.523-3.659-2.362-6.015-2.362c-3.439,0-7.108,1.695-10.064,4.651
 c-5.15,5.15-6.156,12.213-2.291,16.079c1.523,1.523,3.659,2.362,6.015,2.362c2.295,0,4.688-0.77,6.908-2.15l2.516,2.516
 l-91.261,85.322c-14.457-10.064-30.92-16.121-46.772-17.135c-18.038-1.152-34.149,4.391-45.369,15.61
 c-1.452,1.453-2.826,2.888-4.14,4.315l-69.103-69.103l0,0c-0.001-0.001-0.003-0.003-0.005-0.004L97.478,58.953
 c-4.122-4.122-9.602-6.392-15.431-6.392c-4.471,0-8.731,1.346-12.336,3.829l-2.081-2.081c-1.563-1.562-4.095-1.562-5.657,0
 c-1.562,1.563-1.562,4.095,0,5.657l103.371,103.371c-0.19,0.377-0.382,0.754-0.565,1.133c-2.069,3.455-6.781,9.623-15.547,13.204
 c-3.137,1.291-5.157,4.302-5.147,7.672c0.01,3.283,1.894,6.083,4.9,7.299c0.093,0.039,1.152,0.529,1.152,0.529
 c1.222,0.48,2.114,1.156,2.718,2.053c1.772,2.652,0.855,7.577-2.454,13.174c-3.948,6.677-10.668,13.506-18.924,19.232
 c-11.643,8.083-24.708,12.525-32.519,11.042c-2.25-0.426-3.838-1.31-4.715-2.62c-0.068-0.106-0.735-1.197-3.031-6.795
 c-1.125-2.727-3.668-4.426-6.637-4.435c-0.007,0-0.014,0-0.021,0c-3.031,0-5.751,1.817-6.932,4.632
 c-1.641,3.909-3.986,7.403-6.969,10.386c-3.345,3.345-7.419,5.914-11.777,7.426c-16.87,5.829-30.855,13.979-40.445,23.568
 C2.544,286.725-3.35,309.361,1.836,334.576c4.797,23.326,18.492,47.225,38.562,67.295c20.066,20.065,43.962,33.757,67.286,38.553
 c5.97,1.227,11.793,1.833,17.418,1.833c18.134,0,34.193-6.305,46.318-18.43c9.581-9.581,17.733-23.561,23.578-40.433
 c2.901-8.388,9.39-15.225,17.787-18.751c0.936-0.389,1.765-0.94,2.465-1.64c1.769-1.769,2.534-4.288,2.045-6.738
 c-0.475-2.383-2.041-4.285-4.306-5.222c-5.488-2.251-6.61-2.913-6.781-3.024c-1.311-0.876-2.191-2.458-2.618-4.701
 c-1.482-7.804,2.953-20.88,11.035-32.538c5.725-8.255,12.554-14.975,19.231-18.92c5.598-3.308,10.525-4.223,13.177-2.45
 c0.898,0.603,1.574,1.498,2.065,2.735l0.507,1.112c1.224,3.023,4.023,4.907,7.307,4.917c0.009,0,0.017,0,0.024,0
 c3.359,0,6.36-2.019,7.649-5.152c3.608-8.801,9.767-13.485,13.208-15.531c0.38-0.184,0.758-0.377,1.136-0.568l131.276,131.276
 c0.78,0.781,1.805,1.171,2.828,1.171s2.048-0.391,2.828-1.171c1.563-1.563,1.563-4.095,0-5.657l-19.061-19.061l12.604-12.602
 L300.273,261.747c1.427-1.314,2.862-2.687,4.314-4.14c11.215-11.214,16.755-27.323,15.602-45.357
 c-1.013-15.854-7.07-32.316-17.132-46.77l75.119-80.348l3.829,3.829c-0.896,1.445-1.547,2.972-1.883,4.498
 c-0.725,3.299,0.038,6.37,2.092,8.423c1.523,1.523,3.659,2.362,6.015,2.362c3.439,0,7.108-1.695,10.065-4.652
 c5.148-5.15,6.154-12.212,2.29-16.078c-1.523-1.523-3.659-2.362-6.015-2.362c-2.296,0-4.689,0.77-6.909,2.151l-4.019-4.019
 l14.959-16.001l4.535,4.535c-2.847,4.6-2.906,9.805,0.214,12.927c1.523,1.523,3.659,2.362,6.015,2.362
 c3.44,0,7.109-1.695,10.064-4.651c2.231-2.231,3.788-4.95,4.383-7.656c0.725-3.299-0.038-6.37-2.092-8.423
 c-1.523-1.523-3.659-2.362-6.015-2.362c-2.295,0-4.689,0.77-6.909,2.151l-4.73-4.729l13.283-14.208
 c0.887,0.317,1.828,0.492,2.798,0.492c2.787,0,5.374-1.382,6.92-3.698l4.017-6.018l0.786,0.786c0.78,0.781,1.805,1.172,2.828,1.172
 s2.047-0.391,2.828-1.171c1.563-1.562,1.563-4.095,0-5.657l-1.914-1.914l5.248-7.862C443.056,16.074,442.621,11.66,439.826,8.864z"
      />
    </g>
  </svg>