<svg xmlns="http://www.w3.org/2000/svg" viewBox="363 -111.5 125 400" fill="hsla(30, 45%, 45%, 0.8)" transform="scale(-1 1)">
  <path d="M347 190c26 35 30 80 4 105-11 11-21 18-30 23-5 3-13 9-18 21-2 4-7 4-9 0 0-1 0-1-1-1-1-2-2-4-4-5-10-7-30 5-45 26-15 21-19 44-9 51 1 1 5 2 9 4 3 1 3 5 1 6 0 1-1 1-1 1-11 5-20 14-24 25-6 19-16 35-27 46-35 35-92 22-137-16-59-65-71-123-37-158 11-11 27-20 46-27 6-2 11-5 16-10 4-4 7-9 9-14 1-3 6-3 7 0 2 4 3 8 4 9 7 10 29 6 51-9 21-15 33-35 26-45-1-2-3-3-5-4 0 0-1 0-1-1-4-2-4-7 0-9 12-5 18-13 21-18 5-10 12-20 23-31 26-26 71-21 105 4l1 1z" transform="rotate(-45)"/>
</svg>